<?xml version="1.0" encoding="UTF-8" standalone="no"?>
<!-- Created with Inkscape (http://www.inkscape.org/) -->

<svg
   width="332.7933mm"
   height="114.24977mm"
   viewBox="0 0 332.7933 114.24977"
   version="1.1"
   id="svg5802"
   inkscape:version="1.1.1 (3bf5ae0d25, 2021-09-20)"
   sodipodi:docname="logo_light.svg"
   xmlns:inkscape="http://www.inkscape.org/namespaces/inkscape"
   xmlns:sodipodi="http://sodipodi.sourceforge.net/DTD/sodipodi-0.dtd"
   xmlns:xlink="http://www.w3.org/1999/xlink"
   xmlns="http://www.w3.org/2000/svg"
   xmlns:svg="http://www.w3.org/2000/svg">
  <sodipodi:namedview
     id="namedview5804"
     pagecolor="#505050"
     bordercolor="#eeeeee"
     borderopacity="1"
     inkscape:pageshadow="0"
     inkscape:pageopacity="0"
     inkscape:pagecheckerboard="0"
     inkscape:document-units="mm"
     showgrid="false"
     fit-margin-top="0"
     fit-margin-left="0"
     fit-margin-right="0"
     fit-margin-bottom="0"
     inkscape:zoom="0.47215208"
     inkscape:cx="857.77448"
     inkscape:cy="183.20368"
     inkscape:window-width="1366"
     inkscape:window-height="715"
     inkscape:window-x="-8"
     inkscape:window-y="-8"
     inkscape:window-maximized="1"
     inkscape:current-layer="layer1" />
  <defs
     id="defs5799">
    <linearGradient
       inkscape:collect="always"
       xlink:href="#linearGradient8069"
       id="linearGradient5009"
       gradientUnits="userSpaceOnUse"
       gradientTransform="translate(16.974622,-0.40791099)"
       x1="27.004942"
       y1="228.04005"
       x2="70.396606"
       y2="189.95711" />
    <linearGradient
       inkscape:collect="always"
       id="linearGradient8069">
      <stop
         style="stop-color:#3db3fc;stop-opacity:1"
         offset="0"
         id="stop8067" />
      <stop
         style="stop-color:#60ccfc;stop-opacity:1"
         offset="1"
         id="stop8065" />
    </linearGradient>
    <linearGradient
       inkscape:collect="always"
       xlink:href="#linearGradient8069"
       id="linearGradient5011"
       gradientUnits="userSpaceOnUse"
       gradientTransform="matrix(-1,0,0,1,11.31564,37.675987)"
       x1="27.004942"
       y1="228.04005"
       x2="70.396606"
       y2="189.95711" />
  </defs>
  <g
     inkscape:label="Camada 1"
     inkscape:groupmode="layer"
     id="layer1"
     transform="translate(-12.363715,-100.34115)">
    <g
       id="g5007"
       transform="translate(6.48415,-51.124163)">
      <g
         id="g4995"
         transform="translate(64.960528,-9.2459256e-4)">
        <path
           id="path4991"
           style="fill:url(#linearGradient5009);fill-opacity:1;stroke:none;stroke-width:0.264583px;stroke-linecap:butt;stroke-linejoin:miter;stroke-opacity:1"
           d="M 43.979564,151.46624 5.8795645,189.54919 43.979564,227.63214 h 43.39166 l -38.09999,-38.08295 38.09999,-38.08295 z" />
        <path
           id="path4993"
           style="fill:url(#linearGradient5011);fill-opacity:1;stroke:none;stroke-width:0.264583px;stroke-linecap:butt;stroke-linejoin:miter;stroke-opacity:1"
           d="m -15.689302,189.55011 38.099999,38.08295 -38.099999,38.08295 h -43.391661 l 38.099991,-38.08295 -38.099991,-38.08295 z" />
      </g>
      <g
         id="g5005">
        <g
           aria-label="DEV LIRA"
           id="text4999"
           style="font-size:31.6877px;line-height:1.25;font-family:Broadway;-inkscape-font-specification:Broadway;fill:#333333;stroke-width:0.33008">
          <path
             d="m 164.83442,178.26325 v 22.18139 h 12.70677 c 7.54167,-0.0634 11.3125,-5.57703 11.3125,-11.09069 0,-5.51366 -3.77083,-11.02732 -11.3125,-11.0907 z m 5.35522,4.43628 h 7.19311 c 3.96096,0 5.9256,3.32721 5.9256,6.65442 0,3.29552 -1.96464,6.62273 -5.9256,6.62273 h -7.19311 z"
             style="font-family:'Brolink DEMO';-inkscape-font-specification:'Brolink DEMO'"
             id="path5948" />
          <path
             d="m 198.32827,195.97668 v -4.40459 h 12.29483 v -4.43628 h -12.29483 v -4.40459 h 14.41791 v -4.46797 h -19.77313 v 22.18139 h 19.99494 v -4.46796 z"
             style="font-family:'Brolink DEMO';-inkscape-font-specification:'Brolink DEMO'"
             id="path5950" />
          <path
             d="m 231.72706,200.76152 10.71044,-22.49827 h -5.6721 l -7.76349,16.16073 -7.76348,-16.16073 h -5.6721 l 10.74213,22.49827 z"
             style="font-family:'Brolink DEMO';-inkscape-font-specification:'Brolink DEMO'"
             id="path5952" />
          <path
             d="m 258.88339,195.97668 v -17.71343 h -5.35522 v 22.18139 h 19.55131 v -4.46796 z"
             style="font-family:'Brolink DEMO';-inkscape-font-specification:'Brolink DEMO'"
             id="path5954" />
          <path
             d="m 276.62844,200.44464 h 5.35522 v -22.18139 h -5.35522 z"
             style="font-family:'Brolink DEMO';-inkscape-font-specification:'Brolink DEMO'"
             id="path5956" />
          <path
             d="m 286.73676,200.44464 h 5.35522 v -8.33386 h 5.10172 l 5.86223,8.33386 h 6.71779 l -6.84454,-8.77749 c 2.97864,-1.0457 4.46796,-3.77084 4.46796,-6.46429 0,-3.48565 -2.40826,-6.93961 -7.28817,-6.93961 h -13.37221 z m 5.35522,-17.71342 h 6.7178 c 2.02801,0 3.04201,1.23582 3.04201,2.47164 0,1.23582 -1.014,2.47164 -3.04201,2.47164 h -6.7178 z"
             style="font-family:'Brolink DEMO';-inkscape-font-specification:'Brolink DEMO'"
             id="path5958" />
          <path
             d="m 311.80171,200.44464 h 5.6721 l 1.5527,-3.23214 h 12.42158 l 1.55269,3.23214 h 5.6721 l -10.71044,-22.49827 h -5.4186 z m 13.43559,-16.16073 4.05602,8.46062 h -8.11205 z"
             style="font-family:'Brolink DEMO';-inkscape-font-specification:'Brolink DEMO'"
             id="path5960" />
        </g>
        <g
           aria-label="FULL CYCLE DEVELOPER"
           id="text5003"
           style="font-size:10.5833px;line-height:1.25;font-family:Broadway;-inkscape-font-specification:Broadway;fill:#333333;stroke-width:0.264583">
          <path
             d="m 170.15781,210.51685 h -5.3234 v 7.40831 h 0.83608 v -3.22791 h 4.01107 v -0.762 h -4.01107 v -2.64582 h 4.48732 z"
             style="font-family:Gotham;-inkscape-font-specification:Gotham"
             id="path5982" />
          <path
             d="m 177.83069,210.51685 h -0.83608 v 4.3074 q 0,1.21708 -0.60325,1.83091 -0.60325,0.61383 -1.62983,0.61383 -1.06891,0 -1.67216,-0.64558 -0.59267,-0.64558 -0.59267,-1.85208 v -4.25448 h -0.83608 v 4.3074 q 0,0.78316 0.22225,1.38641 0.22225,0.60325 0.62442,1.016 0.41275,0.40216 0.97366,0.61383 0.5715,0.20108 1.25941,0.20108 0.6985,0 1.25942,-0.20108 0.57149,-0.21167 0.97366,-0.62442 0.41275,-0.41274 0.635,-1.02658 0.22225,-0.61383 0.22225,-1.42874 z"
             style="font-family:Gotham;-inkscape-font-specification:Gotham"
             id="path5984" />
          <path
             d="m 179.80975,217.92516 h 5.0059 v -0.77259 h -4.16982 v -6.63572 h -0.83608 z"
             style="font-family:Gotham;-inkscape-font-specification:Gotham"
             id="path5986" />
          <path
             d="m 186.36081,217.92516 h 5.0059 v -0.77259 h -4.16982 v -6.63572 h -0.83608 z"
             style="font-family:Gotham;-inkscape-font-specification:Gotham"
             id="path5988" />
          <path
             d="m 202.43683,216.75041 -0.55033,-0.53975 q -0.52917,0.508 -1.0795,0.79375 -0.55033,0.27516 -1.31233,0.27516 -0.61383,0 -1.143,-0.23283 -0.51858,-0.24341 -0.91016,-0.65616 -0.381,-0.41275 -0.60325,-0.97367 -0.21166,-0.56091 -0.21166,-1.20649 0,-0.64558 0.21166,-1.19592 0.22225,-0.56091 0.60325,-0.97366 0.39158,-0.41275 0.91016,-0.64558 0.52917,-0.23283 1.143,-0.23283 0.762,0 1.30175,0.28575 0.55033,0.28575 1.02658,0.73024 l 0.57149,-0.61383 q -0.27516,-0.26458 -0.57149,-0.47625 -0.29634,-0.22225 -0.64559,-0.37041 -0.34924,-0.15875 -0.76199,-0.24342 -0.40217,-0.0847 -0.91017,-0.0847 -0.81491,0 -1.50283,0.30691 -0.68791,0.29633 -1.18533,0.8255 -0.49741,0.51858 -0.78316,1.21708 -0.27516,0.6985 -0.27516,1.49224 0,0.80433 0.27516,1.50283 0.28575,0.6985 0.78316,1.21708 0.49742,0.508 1.17475,0.80433 0.67733,0.29634 1.48166,0.29634 0.508,0 0.92075,-0.0952 0.41275,-0.0952 0.77258,-0.26459 0.35983,-0.16933 0.66675,-0.40216 0.3175,-0.24342 0.60325,-0.53975 z"
             style="font-family:Gotham;-inkscape-font-specification:Gotham"
             id="path5990" />
          <path
             d="m 206.95589,214.983 3.07974,-4.46615 h -0.97367 l -2.51882,3.70415 -2.49766,-3.70415 h -1.016 l 3.07974,4.47673 v 2.93158 h 0.84667 z"
             style="font-family:Gotham;-inkscape-font-specification:Gotham"
             id="path5992" />
          <path
             d="m 217.08408,216.75041 -0.55033,-0.53975 q -0.52916,0.508 -1.0795,0.79375 -0.55033,0.27516 -1.31233,0.27516 -0.61383,0 -1.14299,-0.23283 -0.51858,-0.24341 -0.91017,-0.65616 -0.38099,-0.41275 -0.60324,-0.97367 -0.21167,-0.56091 -0.21167,-1.20649 0,-0.64558 0.21167,-1.19592 0.22225,-0.56091 0.60324,-0.97366 0.39159,-0.41275 0.91017,-0.64558 0.52916,-0.23283 1.14299,-0.23283 0.762,0 1.30175,0.28575 0.55033,0.28575 1.02658,0.73024 l 0.5715,-0.61383 q -0.27517,-0.26458 -0.5715,-0.47625 -0.29633,-0.22225 -0.64558,-0.37041 -0.34925,-0.15875 -0.762,-0.24342 -0.40216,-0.0847 -0.91016,-0.0847 -0.81492,0 -1.50283,0.30691 -0.68791,0.29633 -1.18533,0.8255 -0.49742,0.51858 -0.78316,1.21708 -0.27517,0.6985 -0.27517,1.49224 0,0.80433 0.27517,1.50283 0.28574,0.6985 0.78316,1.21708 0.49742,0.508 1.17475,0.80433 0.67733,0.29634 1.48166,0.29634 0.508,0 0.92075,-0.0952 0.41274,-0.0952 0.77258,-0.26459 0.35983,-0.16933 0.66674,-0.40216 0.3175,-0.24342 0.60325,-0.53975 z"
             style="font-family:Gotham;-inkscape-font-specification:Gotham"
             id="path5994" />
          <path
             d="m 218.54457,217.92516 h 5.0059 v -0.77259 h -4.16982 v -6.63572 h -0.83608 z"
             style="font-family:Gotham;-inkscape-font-specification:Gotham"
             id="path5996" />
          <path
             d="m 230.45077,210.51685 h -5.35515 v 7.40831 h 5.40807 v -0.762 h -4.57198 v -2.59291 h 4.04282 v -0.762 h -4.04282 v -2.52941 h 4.51906 z"
             style="font-family:Gotham;-inkscape-font-specification:Gotham"
             id="path5998" />
          <path
             d="m 241.87013,214.21042 q 0,-0.78317 -0.28575,-1.4605 -0.28575,-0.67733 -0.81492,-1.17474 -0.51858,-0.49742 -1.24882,-0.77259 -0.71967,-0.28574 -1.5875,-0.28574 h -2.57174 v 7.40831 h 2.57174 q 0.86783,0 1.5875,-0.28575 0.73024,-0.28575 1.24882,-0.78317 0.52917,-0.49741 0.81492,-1.17474 0.28575,-0.68792 0.28575,-1.47108 z m -0.86783,0.0212 q 0,0.62442 -0.22225,1.15358 -0.21167,0.52917 -0.61383,0.93133 -0.39159,0.39159 -0.96308,0.61384 -0.5715,0.22224 -1.27,0.22224 h -1.73566 v -5.86314 h 1.73566 q 0.6985,0 1.27,0.23283 0.57149,0.22225 0.96308,0.62441 0.40216,0.39159 0.61383,0.93133 0.22225,0.53975 0.22225,1.15358 z"
             style="font-family:Gotham;-inkscape-font-specification:Gotham"
             id="path6000" />
          <path
             d="m 248.99268,210.51685 h -5.35515 v 7.40831 h 5.40807 v -0.762 h -4.57199 v -2.59291 h 4.04282 v -0.762 h -4.04282 v -2.52941 h 4.51907 z"
             style="font-family:Gotham;-inkscape-font-specification:Gotham"
             id="path6002" />
          <path
             d="m 253.6599,216.89858 -2.63524,-6.38173 h -0.93133 l 3.18557,7.46122 h 0.74083 l 3.18558,-7.46122 h -0.89958 z"
             style="font-family:Gotham;-inkscape-font-specification:Gotham"
             id="path6004" />
          <path
             d="m 264.02093,210.51685 h -5.35515 v 7.40831 h 5.40807 v -0.762 h -4.57199 v -2.59291 h 4.04282 v -0.762 h -4.04282 v -2.52941 h 4.51907 z"
             style="font-family:Gotham;-inkscape-font-specification:Gotham"
             id="path6006" />
          <path
             d="m 265.75657,217.92516 h 5.0059 v -0.77259 h -4.16982 v -6.63572 h -0.83608 z"
             style="font-family:Gotham;-inkscape-font-specification:Gotham"
             id="path6008" />
          <path
             d="m 279.11268,214.21042 q 0,-0.77258 -0.27517,-1.4605 -0.26458,-0.6985 -0.76199,-1.21708 -0.49742,-0.52916 -1.19592,-0.83608 -0.68791,-0.30691 -1.53457,-0.30691 -0.84667,0 -1.54517,0.3175 -0.69849,0.30691 -1.19591,0.83608 -0.49741,0.52916 -0.77258,1.22766 -0.27517,0.68791 -0.27517,1.46049 0,0.77258 0.26459,1.47108 0.27516,0.68792 0.77258,1.21708 0.49741,0.51858 1.18533,0.8255 0.6985,0.30692 1.54516,0.30692 0.84666,0 1.54516,-0.30692 0.6985,-0.3175 1.19591,-0.84666 0.49742,-0.52917 0.77258,-1.21708 0.27517,-0.6985 0.27517,-1.47108 z m -0.86783,0.0212 q 0,0.635 -0.22225,1.19592 -0.21167,0.55033 -0.59266,0.96308 -0.381,0.41275 -0.92075,0.65616 -0.52917,0.23283 -1.16416,0.23283 -0.635,0 -1.17475,-0.24341 -0.52917,-0.24342 -0.92075,-0.65617 -0.39158,-0.41274 -0.61383,-0.97366 -0.21166,-0.56091 -0.21166,-1.19591 0,-0.635 0.21166,-1.18533 0.22225,-0.56092 0.60325,-0.97367 0.381,-0.41274 0.91016,-0.64558 0.53975,-0.24341 1.17475,-0.24341 0.635,0 1.16416,0.24341 0.53975,0.24342 0.93133,0.65617 0.39158,0.41275 0.60325,0.97366 0.22225,0.56092 0.22225,1.19591 z"
             style="font-family:Gotham;-inkscape-font-specification:Gotham"
             id="path6010" />
          <path
             d="m 286.42572,212.87692 q 0,-0.55033 -0.20108,-0.98425 -0.1905,-0.44449 -0.56091,-0.74083 -0.35984,-0.30691 -0.87842,-0.46566 -0.508,-0.16933 -1.13241,-0.16933 h -2.77282 v 7.40831 h 0.83608 v -2.61408 h 1.79916 q 0.59266,0 1.12183,-0.14817 0.52916,-0.15875 0.92074,-0.46566 0.40217,-0.30692 0.635,-0.762 0.23283,-0.45508 0.23283,-1.05833 z m -0.84666,0.0317 q 0,0.37042 -0.14817,0.67733 -0.13758,0.29634 -0.41274,0.51858 -0.26459,0.21167 -0.64559,0.32809 -0.37041,0.11641 -0.82549,0.11641 h -1.83091 v -3.25965 h 1.87324 q 0.89958,0 1.43933,0.41275 0.55033,0.40216 0.55033,1.20649 z"
             style="font-family:Gotham;-inkscape-font-specification:Gotham"
             id="path6012" />
          <path
             d="m 293.30486,210.51685 h -5.35515 v 7.40831 h 5.40807 v -0.762 h -4.57199 v -2.59291 h 4.04282 v -0.762 h -4.04282 v -2.52941 h 4.51907 z"
             style="font-family:Gotham;-inkscape-font-specification:Gotham"
             id="path6014" />
          <path
             d="m 301.16823,217.92516 -2.27541,-3.02683 q 0.43392,-0.0741 0.80433,-0.254 0.37042,-0.17991 0.635,-0.4445 0.27516,-0.27516 0.42333,-0.63499 0.14817,-0.37042 0.14817,-0.83608 0,-0.49742 -0.1905,-0.89958 -0.1905,-0.41275 -0.53975,-0.6985 -0.34925,-0.29634 -0.84666,-0.45508 -0.48684,-0.15875 -1.10067,-0.15875 h -3.18557 v 7.40831 h 0.83608 v -2.87866 h 2.11666 l 2.14841,2.87866 z m -1.11125,-5.16465 q 0,0.35983 -0.14816,0.64558 -0.13759,0.28575 -0.39159,0.48683 -0.25399,0.1905 -0.60324,0.29633 -0.34925,0.10583 -0.762,0.10583 h -2.27541 v -3.00565 h 2.28599 q 0.89958,0 1.397,0.39158 0.49741,0.381 0.49741,1.0795 z"
             style="font-family:Gotham;-inkscape-font-specification:Gotham"
             id="path6016" />
        </g>
      </g>
    </g>
  </g>
</svg>
