<?xml version="1.0" encoding="UTF-8" standalone="no"?>
<!-- Created with Inkscape (http://www.inkscape.org/) -->

<svg
   width="1024"
   height="1024"
   viewBox="0 0 270.93333 270.93334"
   version="1.1"
   id="svg1365"
   inkscape:version="1.1.1 (3bf5ae0d25, 2021-09-20)"
   sodipodi:docname="logo_dark.svg"
   xmlns:inkscape="http://www.inkscape.org/namespaces/inkscape"
   xmlns:sodipodi="http://sodipodi.sourceforge.net/DTD/sodipodi-0.dtd"
   xmlns="http://www.w3.org/2000/svg"
   xmlns:svg="http://www.w3.org/2000/svg">
  <sodipodi:namedview
     id="namedview1367"
     pagecolor="#505050"
     bordercolor="#eeeeee"
     borderopacity="1"
     inkscape:pageshadow="0"
     inkscape:pageopacity="0"
     inkscape:pagecheckerboard="0"
     inkscape:document-units="px"
     showgrid="false"
     units="px"
     inkscape:zoom="0.11803802"
     inkscape:cx="330.40202"
     inkscape:cy="351.58164"
     inkscape:window-width="1366"
     inkscape:window-height="715"
     inkscape:window-x="-8"
     inkscape:window-y="-8"
     inkscape:window-maximized="1"
     inkscape:current-layer="layer1" />
  <defs
     id="defs1362">
    <clipPath
       clipPathUnits="userSpaceOnUse"
       id="clipPath2045">
      <path
         id="path2047"
         style="fill:#000000;fill-opacity:1;stroke-width:0.604692"
         d="m 70.765705,39.204842 c -0.253614,0 -0.760601,2.789357 -1.141013,6.149496 -1.141172,9.509702 -4.501158,21.11189 -6.149496,21.11189 -0.443791,0 -3.487153,-1.267907 -6.72052,-2.789494 -5.198608,-2.409155 -13.123519,-4.818311 -16.039849,-4.818311 -0.760825,0 -0.38027,1.140846 1.458309,4.881356 2.78951,5.642446 5.325452,14.455037 5.008481,17.498155 l -0.190169,2.028815 -5.705595,0.443902 c -16.610353,1.267923 -24.408331,2.028624 -24.408331,2.345592 0,0.253619 2.789541,3.23311 6.213058,6.720004 6.403199,6.466644 11.094674,13.377013 10.777637,15.786113 -0.126844,0.88769 -3.360145,3.55051 -10.01696,8.17883 -5.388846,3.74065 -9.890163,7.10017 -10.01696,7.41764 -0.126842,0.31685 0.570542,0.76053 1.584917,1.01389 6.783612,1.45854 9.699679,2.40938 12.108822,3.80442 3.296674,1.96524 6.720263,4.88141 8.432043,7.29051 l 1.26814,1.77457 -7.100858,7.03781 c -5.959411,5.95925 -6.973887,7.16432 -6.213059,7.86154 0.507142,0.44384 4.311308,1.90177 8.495606,3.16983 4.184277,1.26804 7.861342,2.59925 8.178313,2.9161 0.316968,0.31686 -0.190108,3.5503 -1.394748,7.98814 -1.077727,4.12097 -1.775087,7.73486 -1.584915,8.05171 0.316992,0.57084 10.777447,0.0632 12.489159,-0.57051 1.584962,-0.57084 2.219097,0.95067 2.662888,5.95933 0.253617,2.91645 0.634183,5.38906 0.887799,5.51542 0.507143,0.31748 7.607805,-2.72607 7.607805,-3.23339 0,-0.18992 -0.824272,-1.52123 -1.838647,-2.97915 -2.916307,-4.24797 -4.881965,-8.62243 -6.72052,-14.70866 -0.88758,-3.1698 -2.218579,-7.41777 -2.852539,-9.51002 -0.697384,-2.09165 -1.395074,-4.94464 -1.521871,-6.33966 -0.887579,-6.71996 -1.01437,-9.1922 -0.380338,-9.1922 0.316968,0 0.634069,1.07755 0.634069,2.34559 0.06331,2.85293 1.458155,10.46032 2.409155,13.18627 0.380347,1.01467 1.585137,4.75521 2.662886,8.24188 2.599338,8.17847 6.339784,15.533 9.573062,18.7663 1.521584,1.52141 4.818218,3.67717 7.988138,5.13508 l 5.325256,2.47272 -0.189651,2.34559 -0.190688,2.34611 -14.137635,4.69119 -14.137637,4.75475 -1.838648,6.02237 c -1.014375,3.36027 -3.867266,13.31419 -6.403226,22.18986 -2.535894,8.81218 -4.945362,16.42018 -5.325774,16.80052 -0.380344,0.38035 -1.521201,3.80385 -2.472201,7.67085 -0.950955,3.80414 -1.838576,7.4814 -2.028817,8.05223 -0.316992,1.07757 2.218881,1.14101 47.23174,1.14101 45.076217,0 47.612597,-0.0634 47.612597,-1.14101 0,-0.57083 -2.98034,-3.86785 -6.65747,-7.29103 -3.67713,-3.42377 -6.65696,-6.59351 -6.65696,-7.10086 0,-0.44384 2.28302,-2.78955 5.00899,-5.19865 6.97393,-5.95925 7.0372,-6.33929 4.18425,-13.6307 -4.8182,-12.23534 -15.15236,-31.12835 -18.95647,-34.6785 -1.20455,-1.14105 -1.648479,-2.21923 -1.648479,-3.93051 0,-2.59956 0.570599,-3.2332 3.803909,-4.31136 3.29679,-1.07757 6.53009,-3.55015 8.74933,-6.65644 1.77477,-2.47259 2.53544,-2.91657 7.41712,-4.43797 2.97993,-0.95118 5.38933,-1.96614 5.38933,-2.21951 0,-0.31684 -1.14125,-1.96483 -2.53628,-3.61321 -2.72594,-3.29679 -3.23311,-5.64277 -1.39423,-6.21357 0.57022,-0.18993 2.78912,-0.50731 4.88136,-0.76068 2.09162,-0.18992 3.99443,-0.50724 4.2478,-0.69712 0.57084,-0.25396 -2.66287,-9.25609 -3.42356,-9.57357 -0.25398,-0.12638 -0.50695,-0.69694 -0.50695,-1.33067 0,-0.76069 0.88772,-1.33189 3.16984,-1.90273 3.93049,-1.01405 13.3134,-5.51495 13.3134,-6.33915 0,-0.38035 -1.20446,-1.26812 -2.66237,-2.02881 -8.11498,-4.12099 -14.70852,-8.87594 -13.37697,-9.63662 0.25337,-0.12707 2.59851,-0.88777 5.13457,-1.64848 2.53609,-0.76069 6.65727,-2.34547 9.19272,-3.48713 4.37496,-1.96526 13.37759,-7.2905 12.99663,-7.67085 -0.25337,-0.18992 -17.43416,-7.54444 -19.08256,-8.11526 -0.76069,-0.31686 -0.95093,-0.69732 -0.63407,-1.26814 0.25336,-0.50673 4.43808,-4.56419 9.25628,-9.00204 4.75529,-4.501493 8.68578,-8.368619 8.68578,-8.622212 0,-0.507164 -3.93125,-1.204719 -15.5329,-2.853055 -4.18448,-0.634031 -7.86138,-1.267761 -8.11475,-1.521354 -0.31685,-0.253619 2.59924,-5.832538 6.46627,-12.362553 6.2767,-10.714307 7.48146,-12.997138 6.84713,-12.997138 -0.12639,0 -5.32571,1.838905 -11.53832,4.121195 -9.06617,3.296722 -11.53867,3.930455 -12.17238,3.296439 -1.39504,-1.394725 -2.72645,-11.85554 -2.72645,-21.238496 V 41.04349 l -5.13509,2.72593 c -6.02274,3.23332 -14.074305,9.509895 -17.814929,13.884426 -1.395042,1.711704 -2.852904,3.10627 -3.106272,3.10627 -0.317449,0 -2.726428,-2.916129 -5.452379,-6.529835 C 79.578579,48.017245 71.653281,39.204842 70.765705,39.204842 Z M 188.90165,127.42323 c -4.11283,0 -8.32936,0.28551 -11.37244,0.85628 -17.81453,3.23334 -27.64152,10.27068 -40.38409,29.10003 -2.78945,4.05748 -2.97967,4.56459 -2.97967,8.49509 0,3.0428 -0.63416,6.02293 -2.28255,11.15797 -2.78947,8.6858 -2.6628,10.71419 1.33119,17.49764 1.58491,2.66306 2.85305,5.19958 2.85305,5.51646 0,0.38035 -0.82412,1.58488 -1.90169,2.72594 -3.36028,3.61365 -3.29697,9.19241 0.19017,12.93305 2.02875,2.09222 6.78365,4.0576 8.05171,3.2334 0.31686,-0.18992 -0.12726,-1.64857 -0.95137,-3.29696 -0.88769,-1.58491 -1.58484,-3.35967 -1.52135,-3.93051 0,-0.63371 0.31677,-0.44364 0.69711,0.57102 1.07757,2.34562 6.08607,10.07989 8.55865,13.12272 4.88168,6.08623 15.40572,12.23623 25.23257,14.83579 2.97994,0.76072 8.242,1.458 12.67985,1.64848 4.18386,0.18991 7.03689,0.56974 6.33966,0.82372 -3.8041,1.33091 -21.30229,-1.14143 -29.35376,-4.18425 l -4.18372,-1.58491 -1.07797,1.45779 c -3.99398,5.26203 -8.55913,17.24471 -9.70019,25.35969 l -0.31677,2.40916 h 39.30716 c 37.15169,0 39.30672,-0.0634 38.98986,-1.14101 -0.18992,-0.57083 -1.20439,-4.37509 -2.21846,-8.43257 -2.21923,-8.74869 -3.99472,-13.12295 -6.84765,-16.86357 -1.14106,-1.5214 -2.09186,-3.10633 -2.09186,-3.55017 0.0628,-0.38034 1.64785,-1.90253 3.61373,-3.29695 3.55013,-2.53608 8.43195,-7.67099 11.09441,-11.72849 0.88767,-1.33153 2.28265,-2.40914 3.55069,-2.78949 1.07756,-0.31745 3.10607,-1.64858 4.5005,-2.91662 4.37495,-4.18448 4.81899,-9.89008 0.95137,-13.25035 -1.33153,-1.14106 -1.52137,-1.71107 -1.14102,-3.73982 0.25336,-1.26804 0.63384,-2.47294 0.8878,-2.66341 0.25337,-0.18992 0.82431,-2.02844 1.26814,-4.12068 0.63373,-3.0428 0.63373,-5.38858 0,-11.91865 -0.44383,-4.43784 -1.0784,-8.0517 -1.39526,-8.0517 -0.31685,0 -0.50742,-1.77537 -0.4439,-3.99459 0.12707,-3.48667 -0.19003,-4.56419 -2.47272,-9.00204 -3.04281,-6.02336 -7.54399,-12.61603 -12.10882,-17.5612 -2.78944,-3.04342 -4.62826,-4.24834 -11.79205,-7.79849 -5.07155,-2.47259 -10.27097,-4.56479 -12.80645,-5.07152 -2.63102,-0.57083 -6.64082,-0.85628 -10.75386,-0.85628 z m -85.32399,69.65828 c -0.32647,0.006 -0.47801,0.12771 -0.47801,0.36535 0,0.19038 1.20452,1.96527 2.72593,3.93051 1.5214,1.96586 3.61369,5.07221 4.75475,6.78408 2.97993,4.7547 9.89045,19.58942 11.91917,25.48578 2.21863,6.2761 2.02892,6.72017 -4.62814,12.36256 -2.53608,2.15573 -4.62814,4.43818 -4.62814,4.94491 0,0.57084 2.8524,3.6139 6.33966,6.91069 3.80412,3.48726 6.33966,6.34017 6.33966,7.10088 0,1.14104 0.5076,1.20456 8.87595,1.20456 6.65707,0 8.87594,-0.19044 8.87594,-0.82423 0,-2.66309 -15.53268,-58.51676 -16.99121,-61.17922 -0.25337,-0.50732 -4.31082,-1.83868 -9.00203,-3.04322 -4.69181,-1.14104 -9.57324,-2.53606 -10.90476,-3.10627 -1.62437,-0.63417 -2.65466,-0.94629 -3.19877,-0.93638 z m -32.368056,6.32468 c 1.014376,0.0635 1.014397,0.1271 0.19017,0.82424 -2.345786,1.83887 -14.327913,33.47451 -13.376958,35.12292 0.316968,0.57021 3.042806,3.16964 6.085932,5.83271 3.106547,2.66246 5.705923,5.13508 5.832719,5.51543 0.126844,0.38034 -0.633794,1.77534 -1.711524,3.10627 -1.014375,1.33153 -1.902208,2.02876 -1.902208,1.58492 0,-0.38034 0.570875,-1.52147 1.331701,-2.40916 l 1.331185,-1.711 -6.086449,-5.70612 c -4.247676,-3.9946 -6.085935,-6.14975 -6.085935,-7.16442 0,-2.02875 7.227591,-21.4283 11.665439,-31.38154 1.077796,-2.40971 1.965172,-3.61425 2.725928,-3.61425 z" />
    </clipPath>
  </defs>
  <g
     inkscape:label="Camada 1"
     inkscape:groupmode="layer"
     id="layer1">
    <g
       id="g2025"
       style="fill:#ffffff"
       clip-path="url(#clipPath2045)">
      <circle
         style="fill:#ffffff;stroke:#000000;stroke-width:4.59944;stroke-linecap:round;stroke-linejoin:round"
         id="path1391"
         cx="135.46667"
         cy="135.46667"
         r="133.16695" />
    </g>
    <ellipse
       style="fill:none;fill-opacity:1;stroke:#ffffff;stroke-width:6.25299;stroke-linecap:round;stroke-linejoin:round;stroke-miterlimit:4;stroke-dasharray:none"
       id="path2071"
       cx="135.46667"
       cy="135.46667"
       rx="132.34016"
       ry="132.34018" />
  </g>
</svg>
